<mxfile host="app.diagrams.net" modified="2020-09-18T23:50:57.980Z" agent="5.0 (Windows NT 10.0; Win64; x64) AppleWebKit/537.36 (KHTML, like Gecko) Chrome/85.0.4183.102 Safari/537.36" etag="aFowBmsvpKhgSRIi4tsC" version="13.7.3" type="github">
  <diagram id="OslVOosWBatsHtp2FqWT" name="Page-1">
    <mxGraphModel dx="782" dy="1537" grid="1" gridSize="10" guides="1" tooltips="1" connect="1" arrows="1" fold="1" page="1" pageScale="1" pageWidth="850" pageHeight="1100" math="0" shadow="0">
      <root>
        <mxCell id="0" />
        <mxCell id="1" parent="0" />
        <mxCell id="BeqPGa5jMXs1MYdLPjbw-10" value="" style="edgeStyle=orthogonalEdgeStyle;rounded=0;orthogonalLoop=1;jettySize=auto;html=1;" parent="1" source="BeqPGa5jMXs1MYdLPjbw-6" target="BeqPGa5jMXs1MYdLPjbw-7" edge="1">
          <mxGeometry relative="1" as="geometry" />
        </mxCell>
        <mxCell id="BeqPGa5jMXs1MYdLPjbw-6" value="Start" style="ellipse;whiteSpace=wrap;html=1;" parent="1" vertex="1">
          <mxGeometry x="70" width="95" height="40" as="geometry" />
        </mxCell>
        <mxCell id="BeqPGa5jMXs1MYdLPjbw-63" value="" style="edgeStyle=orthogonalEdgeStyle;rounded=0;orthogonalLoop=1;jettySize=auto;html=1;" parent="1" source="BeqPGa5jMXs1MYdLPjbw-7" target="BeqPGa5jMXs1MYdLPjbw-15" edge="1">
          <mxGeometry relative="1" as="geometry" />
        </mxCell>
        <mxCell id="BeqPGa5jMXs1MYdLPjbw-7" value="Training&lt;br&gt;(Synthetic&lt;br&gt;Images)" style="rounded=1;whiteSpace=wrap;html=1;" parent="1" vertex="1">
          <mxGeometry x="71.25" y="120" width="92.5" height="50" as="geometry" />
        </mxCell>
        <mxCell id="BeqPGa5jMXs1MYdLPjbw-71" value="" style="edgeStyle=orthogonalEdgeStyle;rounded=0;orthogonalLoop=1;jettySize=auto;html=1;" parent="1" source="BeqPGa5jMXs1MYdLPjbw-8" target="BeqPGa5jMXs1MYdLPjbw-66" edge="1">
          <mxGeometry relative="1" as="geometry" />
        </mxCell>
        <mxCell id="BeqPGa5jMXs1MYdLPjbw-8" value="Testing&lt;br&gt;(Synthetic&lt;br&gt;Images)" style="rounded=1;whiteSpace=wrap;html=1;" parent="1" vertex="1">
          <mxGeometry x="71.25" y="210" width="92.5" height="50" as="geometry" />
        </mxCell>
        <mxCell id="BeqPGa5jMXs1MYdLPjbw-78" value="" style="edgeStyle=orthogonalEdgeStyle;rounded=0;orthogonalLoop=1;jettySize=auto;html=1;" parent="1" source="BeqPGa5jMXs1MYdLPjbw-9" target="BeqPGa5jMXs1MYdLPjbw-68" edge="1">
          <mxGeometry relative="1" as="geometry" />
        </mxCell>
        <mxCell id="BeqPGa5jMXs1MYdLPjbw-9" value="Evaluation&lt;br&gt;(Real-life&lt;br&gt;Images)" style="rounded=1;whiteSpace=wrap;html=1;" parent="1" vertex="1">
          <mxGeometry x="71.25" y="320" width="92.5" height="50" as="geometry" />
        </mxCell>
        <mxCell id="BeqPGa5jMXs1MYdLPjbw-13" value="End" style="ellipse;whiteSpace=wrap;html=1;" parent="1" vertex="1">
          <mxGeometry x="70" y="400" width="95" height="40" as="geometry" />
        </mxCell>
        <mxCell id="BeqPGa5jMXs1MYdLPjbw-45" value="" style="edgeStyle=orthogonalEdgeStyle;rounded=0;orthogonalLoop=1;jettySize=auto;html=1;" parent="1" source="BeqPGa5jMXs1MYdLPjbw-15" target="BeqPGa5jMXs1MYdLPjbw-33" edge="1">
          <mxGeometry relative="1" as="geometry" />
        </mxCell>
        <mxCell id="BeqPGa5jMXs1MYdLPjbw-15" value="Results" style="rounded=1;whiteSpace=wrap;html=1;" parent="1" vertex="1">
          <mxGeometry x="210" y="120" width="92.5" height="50" as="geometry" />
        </mxCell>
        <mxCell id="BeqPGa5jMXs1MYdLPjbw-47" value="" style="edgeStyle=orthogonalEdgeStyle;rounded=0;orthogonalLoop=1;jettySize=auto;html=1;" parent="1" source="BeqPGa5jMXs1MYdLPjbw-17" target="BeqPGa5jMXs1MYdLPjbw-27" edge="1">
          <mxGeometry relative="1" as="geometry" />
        </mxCell>
        <mxCell id="BeqPGa5jMXs1MYdLPjbw-87" style="edgeStyle=orthogonalEdgeStyle;rounded=0;orthogonalLoop=1;jettySize=auto;html=1;" parent="1" source="BeqPGa5jMXs1MYdLPjbw-17" target="BeqPGa5jMXs1MYdLPjbw-8" edge="1">
          <mxGeometry relative="1" as="geometry">
            <Array as="points">
              <mxPoint x="515" y="190" />
              <mxPoint x="118" y="190" />
            </Array>
          </mxGeometry>
        </mxCell>
        <mxCell id="BeqPGa5jMXs1MYdLPjbw-17" value="Pose&amp;nbsp;Acc&lt;br&gt;= 0" style="rhombus;whiteSpace=wrap;html=1;" parent="1" vertex="1">
          <mxGeometry x="470" y="110" width="90" height="70" as="geometry" />
        </mxCell>
        <mxCell id="BeqPGa5jMXs1MYdLPjbw-55" style="edgeStyle=orthogonalEdgeStyle;rounded=0;orthogonalLoop=1;jettySize=auto;html=1;" parent="1" source="BeqPGa5jMXs1MYdLPjbw-27" edge="1">
          <mxGeometry relative="1" as="geometry">
            <mxPoint x="320" y="70" as="targetPoint" />
            <Array as="points">
              <mxPoint x="646" y="20" />
              <mxPoint x="320" y="20" />
            </Array>
          </mxGeometry>
        </mxCell>
        <mxCell id="BeqPGa5jMXs1MYdLPjbw-27" value="loss function / model Refinement" style="rounded=1;whiteSpace=wrap;html=1;" parent="1" vertex="1">
          <mxGeometry x="600" y="120" width="92.5" height="50" as="geometry" />
        </mxCell>
        <mxCell id="BeqPGa5jMXs1MYdLPjbw-46" value="" style="edgeStyle=orthogonalEdgeStyle;rounded=0;orthogonalLoop=1;jettySize=auto;html=1;" parent="1" source="BeqPGa5jMXs1MYdLPjbw-33" target="BeqPGa5jMXs1MYdLPjbw-17" edge="1">
          <mxGeometry relative="1" as="geometry" />
        </mxCell>
        <mxCell id="BeqPGa5jMXs1MYdLPjbw-49" value="" style="edgeStyle=orthogonalEdgeStyle;rounded=0;orthogonalLoop=1;jettySize=auto;html=1;" parent="1" source="BeqPGa5jMXs1MYdLPjbw-33" target="BeqPGa5jMXs1MYdLPjbw-48" edge="1">
          <mxGeometry relative="1" as="geometry" />
        </mxCell>
        <mxCell id="BeqPGa5jMXs1MYdLPjbw-33" value="Seg. Acc.&lt;br&gt;= 1" style="rhombus;whiteSpace=wrap;html=1;" parent="1" vertex="1">
          <mxGeometry x="341.25" y="105" width="90" height="80" as="geometry" />
        </mxCell>
        <mxCell id="BeqPGa5jMXs1MYdLPjbw-51" style="edgeStyle=orthogonalEdgeStyle;rounded=0;orthogonalLoop=1;jettySize=auto;html=1;" parent="1" source="BeqPGa5jMXs1MYdLPjbw-48" edge="1">
          <mxGeometry relative="1" as="geometry">
            <mxPoint x="120" y="70" as="targetPoint" />
            <Array as="points">
              <mxPoint x="120" y="70" />
            </Array>
          </mxGeometry>
        </mxCell>
        <mxCell id="BeqPGa5jMXs1MYdLPjbw-48" value="Model Refinement" style="rounded=1;whiteSpace=wrap;html=1;" parent="1" vertex="1">
          <mxGeometry x="340" y="30" width="92.5" height="50" as="geometry" />
        </mxCell>
        <mxCell id="BeqPGa5jMXs1MYdLPjbw-52" value="No" style="text;html=1;strokeColor=none;fillColor=none;align=center;verticalAlign=middle;whiteSpace=wrap;rounded=0;" parent="1" vertex="1">
          <mxGeometry x="380" y="90" width="40" height="20" as="geometry" />
        </mxCell>
        <mxCell id="BeqPGa5jMXs1MYdLPjbw-53" value="Yes" style="text;html=1;strokeColor=none;fillColor=none;align=center;verticalAlign=middle;whiteSpace=wrap;rounded=0;" parent="1" vertex="1">
          <mxGeometry x="425" y="150" width="40" height="20" as="geometry" />
        </mxCell>
        <mxCell id="BeqPGa5jMXs1MYdLPjbw-56" value="No" style="text;html=1;strokeColor=none;fillColor=none;align=center;verticalAlign=middle;whiteSpace=wrap;rounded=0;" parent="1" vertex="1">
          <mxGeometry x="560" y="120" width="40" height="20" as="geometry" />
        </mxCell>
        <mxCell id="BeqPGa5jMXs1MYdLPjbw-70" value="" style="edgeStyle=orthogonalEdgeStyle;rounded=0;orthogonalLoop=1;jettySize=auto;html=1;" parent="1" source="BeqPGa5jMXs1MYdLPjbw-66" target="BeqPGa5jMXs1MYdLPjbw-69" edge="1">
          <mxGeometry relative="1" as="geometry" />
        </mxCell>
        <mxCell id="BeqPGa5jMXs1MYdLPjbw-66" value="Results" style="rounded=1;whiteSpace=wrap;html=1;" parent="1" vertex="1">
          <mxGeometry x="210" y="210" width="92.5" height="50" as="geometry" />
        </mxCell>
        <mxCell id="BeqPGa5jMXs1MYdLPjbw-80" value="" style="edgeStyle=orthogonalEdgeStyle;rounded=0;orthogonalLoop=1;jettySize=auto;html=1;" parent="1" source="BeqPGa5jMXs1MYdLPjbw-68" target="BeqPGa5jMXs1MYdLPjbw-79" edge="1">
          <mxGeometry relative="1" as="geometry" />
        </mxCell>
        <mxCell id="BeqPGa5jMXs1MYdLPjbw-68" value="Results" style="rounded=1;whiteSpace=wrap;html=1;" parent="1" vertex="1">
          <mxGeometry x="210" y="320" width="92.5" height="50" as="geometry" />
        </mxCell>
        <mxCell id="BeqPGa5jMXs1MYdLPjbw-73" value="" style="edgeStyle=orthogonalEdgeStyle;rounded=0;orthogonalLoop=1;jettySize=auto;html=1;" parent="1" source="BeqPGa5jMXs1MYdLPjbw-69" target="BeqPGa5jMXs1MYdLPjbw-72" edge="1">
          <mxGeometry relative="1" as="geometry" />
        </mxCell>
        <mxCell id="BeqPGa5jMXs1MYdLPjbw-90" style="edgeStyle=orthogonalEdgeStyle;rounded=0;orthogonalLoop=1;jettySize=auto;html=1;entryX=0.5;entryY=0;entryDx=0;entryDy=0;" parent="1" source="BeqPGa5jMXs1MYdLPjbw-69" target="BeqPGa5jMXs1MYdLPjbw-9" edge="1">
          <mxGeometry relative="1" as="geometry">
            <mxPoint x="180" y="300" as="targetPoint" />
            <Array as="points">
              <mxPoint x="388" y="290" />
              <mxPoint x="118" y="290" />
            </Array>
          </mxGeometry>
        </mxCell>
        <mxCell id="BeqPGa5jMXs1MYdLPjbw-69" value="Compare&lt;br&gt;Block" style="rhombus;whiteSpace=wrap;html=1;" parent="1" vertex="1">
          <mxGeometry x="342.5" y="195" width="90" height="80" as="geometry" />
        </mxCell>
        <mxCell id="BeqPGa5jMXs1MYdLPjbw-77" style="edgeStyle=orthogonalEdgeStyle;rounded=0;orthogonalLoop=1;jettySize=auto;html=1;" parent="1" source="BeqPGa5jMXs1MYdLPjbw-72" edge="1">
          <mxGeometry relative="1" as="geometry">
            <mxPoint x="300" y="70" as="targetPoint" />
            <Array as="points">
              <mxPoint x="710" y="235" />
              <mxPoint x="710" y="10" />
              <mxPoint x="300" y="10" />
            </Array>
          </mxGeometry>
        </mxCell>
        <mxCell id="BeqPGa5jMXs1MYdLPjbw-72" value="Regularization,&lt;br&gt;drop-outs" style="rounded=1;whiteSpace=wrap;html=1;" parent="1" vertex="1">
          <mxGeometry x="470" y="210" width="92.5" height="50" as="geometry" />
        </mxCell>
        <mxCell id="BeqPGa5jMXs1MYdLPjbw-75" value="No" style="text;html=1;strokeColor=none;fillColor=none;align=center;verticalAlign=middle;whiteSpace=wrap;rounded=0;" parent="1" vertex="1">
          <mxGeometry x="430" y="210" width="40" height="20" as="geometry" />
        </mxCell>
        <mxCell id="BeqPGa5jMXs1MYdLPjbw-85" value="" style="edgeStyle=orthogonalEdgeStyle;rounded=0;orthogonalLoop=1;jettySize=auto;html=1;" parent="1" source="BeqPGa5jMXs1MYdLPjbw-79" target="BeqPGa5jMXs1MYdLPjbw-84" edge="1">
          <mxGeometry relative="1" as="geometry" />
        </mxCell>
        <mxCell id="BeqPGa5jMXs1MYdLPjbw-93" style="edgeStyle=orthogonalEdgeStyle;rounded=0;orthogonalLoop=1;jettySize=auto;html=1;entryX=1;entryY=0.5;entryDx=0;entryDy=0;" parent="1" source="BeqPGa5jMXs1MYdLPjbw-79" target="BeqPGa5jMXs1MYdLPjbw-13" edge="1">
          <mxGeometry relative="1" as="geometry">
            <Array as="points">
              <mxPoint x="386" y="420" />
            </Array>
          </mxGeometry>
        </mxCell>
        <mxCell id="BeqPGa5jMXs1MYdLPjbw-79" value="Check" style="rhombus;whiteSpace=wrap;html=1;" parent="1" vertex="1">
          <mxGeometry x="341.25" y="305" width="90" height="80" as="geometry" />
        </mxCell>
        <mxCell id="BeqPGa5jMXs1MYdLPjbw-82" value="No" style="text;html=1;strokeColor=none;fillColor=none;align=center;verticalAlign=middle;whiteSpace=wrap;rounded=0;" parent="1" vertex="1">
          <mxGeometry x="430" y="320" width="40" height="20" as="geometry" />
        </mxCell>
        <mxCell id="BeqPGa5jMXs1MYdLPjbw-86" style="edgeStyle=orthogonalEdgeStyle;rounded=0;orthogonalLoop=1;jettySize=auto;html=1;" parent="1" source="BeqPGa5jMXs1MYdLPjbw-84" edge="1">
          <mxGeometry relative="1" as="geometry">
            <mxPoint x="280" y="70" as="targetPoint" />
            <Array as="points">
              <mxPoint x="720" y="345" />
              <mxPoint x="720" />
              <mxPoint x="280" />
            </Array>
          </mxGeometry>
        </mxCell>
        <mxCell id="BeqPGa5jMXs1MYdLPjbw-84" value="Cost function /&lt;br&gt;Data set Augmentation" style="rounded=1;whiteSpace=wrap;html=1;" parent="1" vertex="1">
          <mxGeometry x="470" y="320" width="92.5" height="50" as="geometry" />
        </mxCell>
        <mxCell id="BeqPGa5jMXs1MYdLPjbw-88" value="Yes" style="text;html=1;strokeColor=none;fillColor=none;align=center;verticalAlign=middle;whiteSpace=wrap;rounded=0;" parent="1" vertex="1">
          <mxGeometry x="510" y="175" width="40" height="20" as="geometry" />
        </mxCell>
        <mxCell id="BeqPGa5jMXs1MYdLPjbw-94" value="Yes" style="text;html=1;strokeColor=none;fillColor=none;align=center;verticalAlign=middle;whiteSpace=wrap;rounded=0;" parent="1" vertex="1">
          <mxGeometry x="385" y="270" width="40" height="20" as="geometry" />
        </mxCell>
        <mxCell id="BeqPGa5jMXs1MYdLPjbw-95" value="yes" style="text;html=1;strokeColor=none;fillColor=none;align=center;verticalAlign=middle;whiteSpace=wrap;rounded=0;" parent="1" vertex="1">
          <mxGeometry x="385" y="385" width="40" height="20" as="geometry" />
        </mxCell>
      </root>
    </mxGraphModel>
  </diagram>
</mxfile>
